<svg id="logo-uptodown" xmlns="http://www.w3.org/2000/svg" width="107.001" height="20" viewBox="0 0 107.001 20">
  <g id="Grupo_1965" data-name="Grupo 1965">
    <path id="Trazado_1228" data-name="Trazado 1228" d="M326.574,124.23a4.369,4.369,0,1,0-8.737,0v6.417a.47.47,0,0,0,.469.47h.937a.469.469,0,0,0,.469-.47v-2a.47.47,0,0,1,.675-.421,4.422,4.422,0,0,0,4.913-.9,4.227,4.227,0,0,0,1.275-3.1m-1.872,0a2.5,2.5,0,1,1-.731-1.77,2.413,2.413,0,0,1,.731,1.77" transform="translate(-281.982 -114.23)" fill="#545860"/>
    <path id="Trazado_1229" data-name="Trazado 1229" d="M469.962,106.1v2a.471.471,0,0,1-.675.421,4.41,4.41,0,1,0,2.547,4V106.1a.47.47,0,0,0-.469-.47h-.937a.468.468,0,0,0-.467.47m0,6.415a2.5,2.5,0,1,1-.731-1.77,2.414,2.414,0,0,1,.731,1.77" transform="translate(-401.655 -102.517)" fill="#545860"/>
    <path id="Trazado_1230" data-name="Trazado 1230" d="M528.514,124.22a4.366,4.366,0,1,0-1.277,3.1,4.233,4.233,0,0,0,1.277-3.1m-1.872,0a2.5,2.5,0,1,1-.731-1.77,2.413,2.413,0,0,1,.731,1.77" transform="translate(-448.35 -114.222)" fill="#545860"/>
    <path id="Trazado_1231" data-name="Trazado 1231" d="M263.028,124.223a2.5,2.5,0,1,0,4.992,0V120.31a.47.47,0,0,1,.469-.47h.937a.469.469,0,0,1,.469.47v3.912a4.369,4.369,0,1,1-8.737,0V120.31a.47.47,0,0,1,.469-.47h.935a.469.469,0,0,1,.469.47v3.912Z" transform="translate(-235.286 -114.224)" fill="#545860"/>
    <path id="Trazado_1232" data-name="Trazado 1232" d="M584.259,126.951a4.7,4.7,0,0,1-.342.382,4.369,4.369,0,0,1-7.46-3.1V120.32a.47.47,0,0,1,.469-.47h.935a.469.469,0,0,1,.469.47v3.912a2.5,2.5,0,1,0,4.992,0V120.32a.47.47,0,0,1,.469-.47h.935a.469.469,0,0,1,.469.47v3.912a2.5,2.5,0,1,0,4.992,0V120.32a.47.47,0,0,1,.469-.47h.935a.469.469,0,0,1,.469.47v3.912a4.368,4.368,0,0,1-7.46,3.1,4.719,4.719,0,0,1-.34-.382Z" transform="translate(-495.046 -114.233)" fill="#545860"/>
    <path id="Trazado_1233" data-name="Trazado 1233" d="M673.531,128.611H672.6a.469.469,0,0,1-.469-.47v-3.912a4.369,4.369,0,1,1,8.737,0v3.912a.47.47,0,0,1-.469.47h-.937a.469.469,0,0,1-.469-.47V124.23a2.5,2.5,0,1,0-4.992,0v3.912a.466.466,0,0,1-.467.469" transform="translate(-573.864 -114.23)" fill="#545860"/>
    <path id="Trazado_1234" data-name="Trazado 1234" d="M376.866,110.021a.469.469,0,0,0-.469.47v2.035A2.515,2.515,0,0,0,378.5,115a.479.479,0,0,1,.395.479v.935a.473.473,0,0,1-.528.467,4.386,4.386,0,0,1-3.838-4.358V106.11a.47.47,0,0,1,.469-.47h.937a.469.469,0,0,1,.469.47v1.566a.47.47,0,0,0,.469.47h1.561a.469.469,0,0,1,.469.47v.939a.47.47,0,0,1-.469.47h-1.564Z" transform="translate(-328.686 -102.526)" fill="#545860"/>
    <path id="Trazado_1235" data-name="Trazado 1235" d="M413.867,121.12a4.4,4.4,0,1,0,1.277,3.1A4.207,4.207,0,0,0,413.867,121.12Zm-1.326,4.871a2.509,2.509,0,1,1,.731-1.77A2.4,2.4,0,0,1,412.541,125.99Z" transform="translate(-354.951 -114.222)" fill="#545860"/>
    <g id="Grupo_1964" data-name="Grupo 1964">
      <path id="Trazado_1236" data-name="Trazado 1236" d="M155.955,93.94a.812.812,0,0,0,1.148,0l2.3-2.3a.812.812,0,0,0,0-1.148l-2.3-2.3a.812.812,0,0,0-1.148,0l-2.3,2.3a.812.812,0,0,0,0,1.148Z" transform="translate(-146.527 -87.96)" fill="#00aad5"/>
      <path id="Trazado_1237" data-name="Trazado 1237" d="M134.052,129.615l-2.3-2.3a.812.812,0,0,0-1.148,0l-2.3,2.3a.812.812,0,0,1-1.149,0l-2.3-2.3a.812.812,0,0,0-1.149,0l-2.3,2.3a.812.812,0,0,1-1.148,0l-2.3-2.3a.812.812,0,0,0-1.148,0l-2.3,2.3a.812.812,0,0,0,0,1.148l2.871,2.871,3.445,3.445,2.871,2.871a.812.812,0,0,0,1.149,0l2.871-2.871,3.445-3.445,2.871-2.871A.812.812,0,0,0,134.052,129.615Z" transform="translate(-114.29 -120.189)" fill="#00aad5"/>
    </g>
  </g>
</svg>
